<?xml version="1.0" encoding="utf-8"?>
<!-- Generator: Adobe Illustrator 19.2.1, SVG Export Plug-In . SVG Version: 6.00 Build 0)  -->
<svg version="1.1" id="Instagram" xmlns="http://www.w3.org/2000/svg" xmlns:xlink="http://www.w3.org/1999/xlink" x="0px" y="0px"
	 viewBox="0 0 144.1 144" style="enable-background:new 0 0 144.1 144;" xml:space="preserve">
<style type="text/css">
	.st0{fill:#CC3333;}
</style>
<rect x="83.4" y="50.8" class="st0" width="8.9" height="9.2"/>
<path class="st0" d="M86.8,71.9c0,8.2-6.6,14.8-14.8,14.8c-8.2,0-14.8-6.6-14.8-14.8c0-2.2,0.5-4.3,1.4-6.2h-9.8v25.4
	c0,2.3,1.9,4.2,4.2,4.2h38.1c2.3,0,4.2-1.9,4.2-4.2V65.7h-9.8C86.3,67.6,86.8,69.7,86.8,71.9z"/>
<path class="st0" d="M72,80.7c4.9,0,8.8-3.9,8.8-8.8c0-2.4-1-4.6-2.5-6.2H65.8c-1.6,1.6-2.5,3.8-2.5,6.2
	C63.2,76.8,67.2,80.7,72,80.7z"/>
<path class="st0" d="M72,14.2c-31.9,0-57.8,25.9-57.8,57.8c0,31.9,25.9,57.8,57.8,57.8s57.8-25.9,57.8-57.8
	C129.9,40.1,104,14.2,72,14.2z M101.3,91.1c0,5.6-4.6,10.2-10.2,10.2H53c-5.6,0-10.2-4.6-10.2-10.2V52.9c0-5.6,4.6-10.2,10.2-10.2
	h38.1c5.6,0,10.2,4.6,10.2,10.2V91.1z"/>
</svg>
