<?xml version="1.0" encoding="utf-8"?>
<!-- Generator: Adobe Illustrator 19.2.1, SVG Export Plug-In . SVG Version: 6.00 Build 0)  -->
<svg version="1.1" id="Pinterest" xmlns="http://www.w3.org/2000/svg" xmlns:xlink="http://www.w3.org/1999/xlink" x="0px" y="0px"
	 viewBox="0 0 144.1 144" style="enable-background:new 0 0 144.1 144;" xml:space="preserve">
<style type="text/css">
	.st0{fill:#CC3333;}
</style>
<path class="st0" d="M72,14.2c-31.9,0-57.8,25.9-57.8,57.8c0,31.9,25.9,57.8,57.8,57.8s57.8-25.9,57.8-57.8
	C129.9,40.1,104,14.2,72,14.2z M99.6,65.3c-0.7,8.2-6.7,17.8-12.3,20.6c-5.6,2.7-11.5,2.7-14.9,1.1c0,0-4.4-2.7-5-3.4
	c-0.4,0.3-1.6,7.9-3.4,12.6s-4.3,9.4-7.9,11.5c-1.3-4.3-0.5-14.8,2.1-24.1c2.5-9.3,3.5-13.6,3.5-13.6s-3.2-6.1-0.1-12.8
	c3.1-6.7,9-5.2,10.1-4.1c1.1,1.1,3.2,1.9,1.5,8.8C71.5,68.6,68.6,75.3,71,79c1.4,2.1,9.1,3.7,13.5-2.1c3.5-5.9,4.9-8.5,5-17.8
	c0,0,0.2-14.8-13-15.7c-11.1-0.8-16.3,4-19.7,7.3c-3.6,3.5-6.2,13.1-2.9,18.4c1.7,2.4,1.8,3.7,1.5,5.1s-1.3,3.4-1.3,3.4
	s-9.5-1.7-9.9-13.3c-0.5-11.6,5-18.2,9.8-21.9c4.8-3.7,13.1-8.3,29.6-5.3C94.5,40.3,101.3,49.6,99.6,65.3z"/>
</svg>
