<?xml version="1.0" encoding="utf-8"?>
<!-- Generator: Adobe Illustrator 19.2.1, SVG Export Plug-In . SVG Version: 6.00 Build 0)  -->
<svg version="1.1" id="Twitter" xmlns="http://www.w3.org/2000/svg" xmlns:xlink="http://www.w3.org/1999/xlink" x="0px" y="0px"
	 viewBox="0 0 144.1 144" style="enable-background:new 0 0 144.1 144;" xml:space="preserve">
<style type="text/css">
	.st0{fill:#CC3333;}
</style>
<path class="st0" d="M72,14.2c-31.9,0-57.8,25.9-57.8,57.8c0,31.9,25.9,57.8,57.8,57.8c31.9,0,57.8-25.9,57.8-57.8S104,14.2,72,14.2
	z M100.3,57.6c0,0,1.4,6.8-3.6,18.8c-4.9,12-17.2,23.3-34,24.3c-16.8,1.1-25.9-6.4-25.9-6.4c12.6,1,18.2-4.2,21.2-5.9
	c-11.7-1.5-13.4-10.4-13.4-10.4c1.1,0.5,4.6,0.3,6.5-0.2c-11.5-2.8-11.7-14.4-11.7-14.4s4.3,2.2,6.7,1.8
	c-11.1-8.4-4.6-19.4-4.6-19.4c14.6,16,30.2,15.1,30.2,15.1l0.1,0.1c-0.3-1.1-0.4-2.3-0.4-3.5c0-8,6.5-14.5,14.5-14.5
	c4.2,0,8,1.8,10.7,4.7l0.1-0.1c5.2-0.3,9-3.1,9-3.1c-1.6,4.6-4.9,6.7-6.3,7.5c0,0,0,0.1,0.1,0.1c1.8-0.4,6.7-1.6,8-2
	C104.4,55.5,100.3,57.6,100.3,57.6z"/>
</svg>
