<?xml version="1.0" encoding="utf-8"?>
<!-- Generator: Adobe Illustrator 19.2.1, SVG Export Plug-In . SVG Version: 6.00 Build 0)  -->
<svg version="1.1" id="Youtube" xmlns="http://www.w3.org/2000/svg" xmlns:xlink="http://www.w3.org/1999/xlink" x="0px" y="0px"
	 viewBox="0 0 144.1 144" style="enable-background:new 0 0 144.1 144;" xml:space="preserve">
<style type="text/css">
	.st0{fill:#CC3333;}
</style>
<path class="st0" d="M72,14.2c-31.9,0-57.8,25.9-57.8,57.8c0,31.9,25.9,57.8,57.8,57.8c31.9,0,57.8-25.9,57.8-57.8
	C129.9,40.1,104,14.2,72,14.2z M104.4,85c0,4.4-3.6,8.1-8,8.1c0,0-6.9,1-24.7,1c-18,0-24.3-1-24.3-1c-4.4,0-8.1-3.6-8.1-8.1V58.5
	c0-4.4,3.6-8,8.1-8c0,0,6.3-1,24.3-1c17.9,0,24.8,1,24.8,1c4.4,0,8,3.6,8,8C104.4,58.5,104.4,85,104.4,85z"/>
<polygon class="st0" points="62,84.5 84,71.8 62,59.1 "/>
</svg>
